<?xml version="1.0" encoding="utf-8" standalone="yes"?>
<!DOCTYPE svg PUBLIC "-//W3C//DTD SVG 1.1//EN" "http://www.w3.org/Graphics/SVG/1.1/DTD/svg11.dtd">
<svg width="62" height="62" viewBox="0 0 62 62" style="fill:none;stroke:none;fill-rule:evenodd;clip-rule:evenodd;stroke-linecap:round;stroke-linejoin:round;stroke-miterlimit:1.5;" version="1.1" xmlns="http://www.w3.org/2000/svg" xmlns:xlink="http://www.w3.org/1999/xlink"><g id="blend" style="mix-blend-mode:multiply"><g id="g-root-netw_7qbcafato1y-fill" data-item-order="0" data-item-id="netw_7qbcafato1y" data-item-class="Icon Stroke SceneTarget Indexed ColorStrokeGray" data-item-index="none" data-renderer-id="0" transform="translate(3, 3)"></g><g id="g-root-netw_7qbcafato1y-stroke" data-item-order="0" data-item-id="netw_7qbcafato1y" data-item-class="Icon Stroke SceneTarget Indexed ColorStrokeGray" data-item-index="none" data-renderer-id="0" transform="translate(3, 3)"><g id="netw_7qbcafato1y-stroke" fill="none" stroke-linecap="round" stroke-linejoin="round" stroke-miterlimit="4" stroke="#CCCCCC" stroke-width="2"><g><path d="M 10.75 28C 9.7 37.45 18.7 43.75 28 45.25C 37.45 46.75 46.9 37.45 45.25 28C 43.75 18.55 37.6 11.2 28 10.75C 18.55 10.3 10.15 18.55 10.75 28M 19.75 21.55C 20.05 23.5 21.4 25.45 23.2 25C 25 24.55 26.05 23.35 26.5 21.55C 27.1 19.9 25 17.65 23.2 18.25C 21.4 18.85 19.9 19.75 19.75 21.55M 29.5 36.55C 29.35 37.6 30.4 38.8 31.45 38.5C 32.5 38.2 33.25 37.6 33.25 36.55C 33.4 35.65 32.5 34.75 31.45 34.75C 30.4 34.75 29.5 35.65 29.5 36.55M 35.5 25.3C 35.5 26.8 36.85 27.55 38.2 28C 39.55 28.45 40.9 26.8 40.75 25.3C 40.75 23.95 39.55 22.3 38.2 22.75C 36.85 23.2 35.95 23.95 35.5 25.3M 26.5 21.25C 29.8 22.15 32.95 22.9 35.5 25M 38.65 28C 38.95 28.15 39.1 28.45 39.25 28.75C 39.25 28.75 41.05 31.75 41.5 38.5M 35.35 12.4C 35.35 12.55 35.35 12.85 35.5 13C 37.6 15.7 37.9 19.75 37 23.05M 36.25 27.25C 36.7 30.4 35.2 33.4 33.1 35.8M 30.55 38.2C 30.4 38.35 30.4 38.5 30.25 38.5C 30.25 38.5 26.5 42.55 18.25 42.25M 28 10.75C 26.5 13.3 24.1 15.4 23.2 18.25M 21.4 24.55C 21.4 24.7 21.4 24.85 21.25 25C 18.85 28.3 20.05 33.85 22.75 37C 24.85 42.4 31.75 44.5 31.75 44.5C 32.05 44.5 32.2 44.65 32.35 44.65M 19.75 21.55C 19.75 21.7 13 21.1 11.2 24.55M 11.2 31.75C 11.35 31.75 11.5 31.75 11.5 31.75C 11.5 31.75 21.55 30.85 30.25 35.2"></path><path d="M 10.804 27.997C 10.804 37.524 18.527 45.247 28.054 45.247C 37.581 45.247 45.304 37.524 45.304 27.997C 45.304 18.47 37.581 10.747 28.054 10.747C 18.527 10.747 10.804 18.47 10.804 27.997ZM 19.804 21.622C 19.804 23.486 21.315 24.997 23.179 24.997C 25.043 24.997 26.554 23.486 26.554 21.622C 26.554 19.758 25.043 18.247 23.179 18.247C 21.315 18.247 19.804 19.758 19.804 21.622ZM 29.554 36.622C 29.554 37.658 30.393 38.497 31.429 38.497C 32.465 38.497 33.304 37.658 33.304 36.622C 33.304 35.586 32.465 34.747 31.429 34.747C 30.393 34.747 29.554 35.586 29.554 36.622ZM 35.554 25.372C 35.554 26.822 36.729 27.997 38.179 27.997C 39.629 27.997 40.804 26.822 40.804 25.372C 40.804 23.922 39.629 22.747 38.179 22.747C 36.729 22.747 35.554 23.922 35.554 25.372ZM 26.554 21.25C 29.907 21.378 33.102 22.709 35.554 25M 38.702 27.946L 39.302 28.747C 39.302 28.747 41.552 31.747 41.552 38.497M 35.288 12.332L 35.554 13C 36.64 16.216 37.148 19.6 37.054 22.993M 36.304 27.25C 36.116 30.348 35 33.317 33.1 35.771M 30.532 38.269L 30.304 38.5C 30.304 38.5 26.554 42.25 18.304 42.25M 28.054 10.75C 26.002 12.945 24.352 15.484 23.179 18.25M 21.427 24.508L 21.304 25C 20.487 29.057 21.013 33.269 22.804 37C 25.354 42.109 31.804 44.5 31.804 44.5L 32.364 44.708M 19.804 21.622C 19.804 21.622 14.05 22.035 11.141 24.581M 11.224 31.798L 11.554 31.747C 11.554 31.747 21.875 30.16 30.265 35.152"></path></g></g></g></g></svg>